<?xml version="1.0" standalone="no"?>
<!DOCTYPE svg PUBLIC "-//W3C//DTD SVG 20010904//EN"
 "http://www.w3.org/TR/2001/REC-SVG-20010904/DTD/svg10.dtd">
<svg version="1.0" xmlns="http://www.w3.org/2000/svg"
 width="1673.000000pt" height="1673.000000pt" viewBox="0 0 1673.000000 1673.000000"
 preserveAspectRatio="xMidYMid meet">
<metadata>
Created by potrace 1.14, written by Peter Selinger 2001-2017
</metadata>
<g transform="translate(0.000000,1673.000000) scale(0.100000,-0.100000)"
fill="#000000" stroke="none">
<path d="M3980 16724 c-215 -23 -369 -76 -529 -182 -216 -143 -386 -380 -452
-633 -28 -106 -37 -324 -19 -437 51 -317 250 -604 533 -767 l47 -27 0 -2672 0
-2673 -97 -64 c-676 -440 -658 -1418 35 -1833 l62 -37 0 -2673 0 -2672 -97
-64 c-282 -184 -462 -477 -492 -803 -49 -511 268 -978 769 -1136 205 -64 468
-58 673 16 310 111 554 352 662 656 99 278 83 559 -46 833 -78 166 -239 343
-404 446 l-90 55 -3 2666 -2 2667 27 16 c274 165 432 349 522 608 132 377 42
793 -234 1085 -70 74 -179 161 -269 213 l-46 28 2 2667 3 2667 61 35 c487 284
677 885 439 1388 -58 123 -105 193 -194 286 -202 211 -448 324 -746 340 -44 3
-96 3 -115 1z m179 -639 c179 -43 323 -187 366 -366 41 -175 -13 -349 -147
-474 -278 -259 -739 -110 -817 263 -72 347 251 659 598 577z m0 -7280 c313
-74 474 -427 323 -709 -42 -80 -138 -171 -224 -211 -296 -141 -644 40 -700
363 -58 341 261 637 601 557z m0 -7280 c270 -64 436 -342 362 -607 -59 -216
-249 -358 -477 -358 -193 0 -363 106 -444 275 -177 371 158 784 559 690z"/>
<path d="M7366 16705 c-413 -86 -745 -397 -846 -792 -153 -598 224 -1196 837
-1329 107 -23 321 -23 428 0 290 63 533 226 691 462 46 69 105 184 127 247 6
16 97 17 1724 16 1333 0 1714 -3 1699 -12 -255 -164 -430 -418 -491 -711 -19
-94 -22 -295 -5 -387 57 -312 258 -599 523 -749 l57 -32 0 -859 c0 -472 -3
-859 -8 -859 -21 0 -193 -125 -255 -186 -100 -98 -161 -183 -222 -309 -88
-179 -119 -351 -103 -563 25 -331 239 -667 531 -832 l57 -32 -1 -286 0 -287
-137 -117 -137 -118 -1682 0 -1681 0 -36 48 c-80 109 -249 249 -381 315 -246
122 -568 143 -834 52 -357 -121 -635 -433 -712 -799 -27 -127 -27 -320 -1
-442 80 -360 327 -651 667 -783 119 -46 180 -60 339 -75 l120 -11 2028 -2858
2028 -2858 -24 -57 c-118 -286 -114 -582 15 -869 47 -104 119 -204 223 -309
187 -187 397 -286 664 -313 587 -60 1131 389 1181 973 28 327 -80 627 -309
857 -232 233 -547 348 -874 318 -54 -5 -100 -8 -101 -7 -1 2 -898 1266 -1993
2810 l-1992 2808 30 48 c16 27 44 79 60 116 l30 66 1804 0 1803 0 442 382 441
383 0 506 0 506 28 12 c44 21 143 90 211 150 146 127 275 338 328 536 24 89
27 118 27 265 0 147 -3 176 -27 265 -51 192 -169 390 -309 521 -64 60 -177
140 -230 165 l-28 12 0 856 0 856 47 25 c76 40 197 135 263 207 121 132 211
296 257 471 24 86 27 116 27 262 0 147 -3 176 -27 265 -47 176 -143 348 -267
479 -62 66 -182 159 -253 196 l-47 25 0 230 0 230 -243 243 -242 242 -2078 0
-2079 0 -76 82 c-144 153 -318 259 -513 314 -80 22 -119 27 -259 30 -117 2
-185 -1 -234 -11z m290 -616 c228 -41 404 -252 404 -484 0 -295 -270 -526
-565 -484 -103 14 -203 65 -279 141 -197 198 -193 508 10 698 122 114 270 158
430 129z m5147 -1301 c212 -101 324 -324 276 -550 -55 -257 -322 -430 -581
-377 -136 28 -281 137 -342 257 -137 271 -7 588 284 690 55 19 82 22 175 20
103 -3 115 -5 188 -40z m-110 -3603 c26 -4 83 -24 126 -46 206 -103 313 -334
256 -554 -67 -255 -323 -417 -577 -364 -84 18 -173 65 -242 129 -265 248 -177
679 166 812 54 21 153 37 198 32 14 -2 46 -6 73 -9z m-5014 -2380 c178 -42
319 -181 366 -360 57 -221 -51 -453 -259 -555 -299 -148 -651 30 -708 358 -58
341 262 637 601 557z m5083 -7276 c315 -66 482 -406 342 -696 -83 -173 -246
-273 -445 -273 -146 0 -256 47 -356 153 -94 100 -133 196 -133 333 0 215 124
392 325 462 95 34 176 40 267 21z"/>
</g>
</svg>
